<svg width="19" height="16" viewBox="0 0 19 16" fill="none" xmlns="http://www.w3.org/2000/svg">
<path d="M3.16657 8.98328V11.3249C3.16657 11.9333 3.4999 12.4999 4.03324 12.7916L8.1999 15.0666C8.6999 15.3416 9.2999 15.3416 9.7999 15.0666L13.9666 12.7916C14.4999 12.4999 14.8332 11.9333 14.8332 11.3249V8.98328L9.7999 11.7333C9.2999 12.0083 8.6999 12.0083 8.1999 11.7333L3.16657 8.98328ZM8.1999 0.933276L1.1749 4.76661C0.599902 5.08328 0.599902 5.91661 1.1749 6.23328L8.1999 10.0666C8.6999 10.3416 9.2999 10.3416 9.7999 10.0666L16.4999 6.40828V11.3333C16.4999 11.7916 16.8749 12.1666 17.3332 12.1666C17.7916 12.1666 18.1666 11.7916 18.1666 11.3333V5.99161C18.1666 5.68328 17.9999 5.40828 17.7332 5.25828L9.7999 0.933276C9.55369 0.801964 9.27894 0.733276 8.9999 0.733276C8.72086 0.733276 8.44611 0.801964 8.1999 0.933276Z" fill="#9CA3AF"/>
</svg>
